<?xml version="1.0" encoding="UTF-8"?>
<svg id="QR_Code" data-name="QR Code" xmlns="http://www.w3.org/2000/svg" xmlns:xlink="http://www.w3.org/1999/xlink" viewBox="0 0 426.4 426.4">
  <defs>
    <style>
      .cls-1 {
        fill: url(#Wolf-2);
      }

      .cls-2 {
        fill: url(#Wolf-3);
      }

      .cls-3 {
        fill: url(#Wolf-4);
      }

      .cls-4 {
        fill: url(#Wolf-5);
      }

      .cls-5 {
        fill: url(#Wolf-6);
      }

      .cls-6 {
        fill: url(#Wolf-7);
      }

      .cls-7 {
        fill: none;
        stroke: url(#linear-gradient);
        stroke-miterlimit: 10;
        stroke-width: 3px;
      }
    </style>
    <linearGradient id="linear-gradient" x1="426.4" y1="213.2" x2="0" y2="213.2" gradientUnits="userSpaceOnUse">
      <stop offset="0" stop-color="#f9bfb1"/>
      <stop offset=".46" stop-color="#e296a1"/>
      <stop offset="1" stop-color="#a75296"/>
    </linearGradient>
    <linearGradient id="Wolf-2" data-name="Wolf" x1="213.23" y1="62.59" x2="213.23" y2="363.81" gradientUnits="userSpaceOnUse">
      <stop offset="0" stop-color="#f9bfb1"/>
      <stop offset=".46" stop-color="#e296a1"/>
      <stop offset="1" stop-color="#a75296"/>
    </linearGradient>
    <linearGradient id="Wolf-3" data-name="Wolf" x1="125.86" y1="63.51" x2="125.86" y2="215.55" xlink:href="#Wolf-2"/>
    <linearGradient id="Wolf-4" data-name="Wolf" x1="328.77" y1="76.17" x2="328.77" y2="215.13" xlink:href="#Wolf-2"/>
    <linearGradient id="Wolf-5" data-name="Wolf" x1="179.27" y1="87.32" x2="179.27" y2="108.32" xlink:href="#Wolf-2"/>
    <linearGradient id="Wolf-6" data-name="Wolf" x1="88.05" y1="134.87" x2="88.05" y2="185.53" xlink:href="#Wolf-2"/>
    <linearGradient id="Wolf-7" data-name="Wolf" x1="337.93" y1="135.16" x2="337.93" y2="185.59" xlink:href="#Wolf-2"/>
  </defs>
  <g id="Circle">
    <g id="c">
      <circle class="cls-7" cx="213.2" cy="213.2" r="211.7"/>
    </g>
  </g>
  <g id="Wolf">
    <path class="cls-1" d="M207.5,110.62c-10.32,1.12-19.36,5.43-26.11,13.24-5.45,6.32-10.14,13.35-14.71,20.36-7.38,11.33-15.78,21.7-26.91,29.49-6.62,4.63-13.71,8.58-20.75,12.95,7.39,9.79,18.05,14.34,30.55,16.17-3.91,13.97-8.83,27.27-16.66,39.37.13.16.26.32.39.48,4.73-1.94,9.46-3.89,14.85-6.1-8.53,16.57-16.78,32.58-25.02,48.59l.42.36c5.54-2.23,11.08-4.45,16.62-6.68-9.36,8.66-16.62,18.84-22.94,30.02-1.75-2.33-3.3-4.37-4.82-6.44-15.91-21.67-23.68-46.08-24.17-72.83-.19-10.42,1.22-20.75,3.64-30.89,8.53-35.66,27.55-64.13,58.3-84.48,2.14-1.42,4.26-2.86,6.39-4.3-.69-.33-1.17-.34-1.63-.23-6.77,1.56-12.82,4.74-18.45,8.65-13.21,9.15-24.14,20.59-32.97,33.98-17.74,26.92-26.24,56.38-23.4,88.7.69,7.82,1.76,15.72,3.76,23.29,9.24,34.99,28.99,62.28,60.47,80.69,18.23,10.66,37.86,17.08,58.9,18.47,19.08,1.26,37.74-1.16,55.88-7.68,26.85-9.66,48.42-26.03,64.53-49.57,14.2-20.75,21.38-43.91,23-68.84.62-9.58-.06-19.17-1.57-28.66-2.47-15.49-7.52-30.11-15.05-43.86-6.83-12.47-15.09-23.84-25.94-33.17-1.89-1.62-4.17-1.72-6.86-.29.39.42.77.82,1.13,1.23,4.32,5,9.06,9.71,12.89,15.07,18.87,26.38,28.29,55.71,26.24,88.3-.45,7.19-1.51,14.41-3,21.47-3.11,14.75-9.23,28.36-17.42,40.96-8.95,13.76-20.59,25-34.12,34.22-5.34,3.63-11.07,6.68-16.62,10,8.18-16.71,12.88-33.69,11.05-52.14,3.62,6.51,5.11,13.51,5.63,20.82,12.15-24.38,7.35-47.48-5.15-70.2,4.41,3.16,8.82,6.33,13.66,9.8-3.75-17.67-13.82-31.08-25.85-43.96,2.98.61,5.21,1.25,7.49,1.48s4.6.05,6.9.05c-8.64-5.73-15.1-12.89-19.62-21.93,3.18.25,6.07.47,8.96.7-.41-1.05-.92-1.53-1.44-2.01-4.51-4.2-6.81-9.33-7.19-15.54-.62-10.15,3.24-18.57,9.48-26.16,3.08-3.74,6.4-7.28,9.35-11.12,4.36-5.66,4.22-11.81,1.09-17.93-1.62-3.18-4.11-5.63-7.9-6.07-.52-.06-1.65.74-1.65,1.13,0,7.09-4.71,11.08-9.79,14.63-3.48,2.44-5.23,1.26-5.24-3.08,0-.4,0-.82.1-1.2,1.11-3.77,2.08-7.59,3.42-11.28,1.97-5.44,4.59-10.67,6.21-16.2,1.94-6.62.41-12.86-4.49-17.85-1.5-1.54-2.57-3.08-3.39-5.02-1.42-3.4-3.66-6.06-7.55-6.85-2.02-.41-3.61.05-4.8,1.86-2.4,3.64-4.85,7.24-7.32,10.83-6.45,9.37-12.95,18.71-19.37,28.1-2.79,4.07-6.34,6.56-11.43,7.11h0ZM198.97,128.24c.73-4.04,3.38-6.62,7.5-7.59,1.94-.46,3.84-1.1,5.88-1.69-.62,4.37-1.58,8.66-6.2,10.71-3.41,1.52-5.05,4.29-6.23,7.55-.5,1.39-1.02,2.77-1.54,4.16-.27-.05-.54-.1-.81-.15.44-4.33.63-8.71,1.4-12.99h0ZM137.58,187.72c16.29-4.11,28.58-13.61,37.97-27.78-.59,11.04-6.63,18.04-15.21,23.76,7.54-.48,14.37-2.47,20.85-5.79-5.92,10.8-28.31,18.08-43.61,9.81ZM197.65,275.34c4.52,11.72,3.36,23.01-2.25,34.03,1.08-10.03-1.35-19.4-5.4-28.37-2.35-5.21-5.3-10.14-7.98-15.2-3.63-6.86-7.26-13.72-10.8-20.42-.43,8.56.99,17.15,3.64,25.94-11.22-12.45-19.73-43.21-12.14-61.83.77,4.43,1.25,9.13,2.45,13.65,1.2,4.53,3.11,8.87,5.11,13.2-1.46-10.42-.88-20.43,3.97-29.87-3.7,22.03,4.84,40.17,17.83,56.94-3.06-8.12-5.18-16.32-3.37-25.04,1.68,9.38,6.96,16.81,12.62,24.08,3.81,4.9,7.86,9.65,11.21,14.85,6.04,9.37,8.18,19.79,7.26,30.91-.47,5.74-1.71,11.2-4.24,16.41,1.94-19.34-3.94-35.77-17.92-49.27h0ZM231.67,352.13c-2.26,3.08-5.05,4.14-8.58,4.13h-5.1c.69-1.14,1.51-2.54,2.37-3.91,7.25-11.6,11.42-24.22,12.96-37.82,2.06-18.13-2.19-35-9.78-51.24-2.06-4.41-4.4-8.7-6.62-13.04,13.31,14.14,23.8,29.88,26.85,49.42,2.97,18.99-.53,36.67-12.1,52.46ZM256.9,328.85c7.23-26.61.53-50.31-15.29-72.7,23.75,20.02,28.54,51.98,15.29,72.7ZM247.72,152.38c-9.23,15.62-11,32.35-7.89,49.79-9.68-12.04-8.26-35.78,7.89-49.79h0ZM231.4,223.32c-4.35-6.83-6.73-14.32-7.69-22.34,7.22,12.55,17.6,22.1,28.35,30.77-2.33-5.56-4.78-11.42-7.24-17.27.25-.12.5-.23.75-.35,2.1,2.76,4.23,5.49,6.29,8.27,4.03,5.44,8.27,10.74,11.96,16.41,5.29,8.13,7.25,17.47,8.7,26.91.12.78.3,1.55.45,2.33-8.54-17.53-23.62-28.22-39.62-38.01,2.99,4.78,6.01,9.58,9.02,14.39-.12.11-.23.22-.35.33-5.76-4.17-11.57-8.27-17.26-12.52-9.01-6.74-15.97-15.21-20.87-25.35-.79-1.63-1.36-3.37-2.03-5.06-.23.04-.45.08-.68.12.72,5.13,1.43,10.25,2.1,15.04-13.42-13.22-19.41-43.96-7.1-60.91-2.74,9.76-2.93,19.44.31,29.47.35-3.65.27-6.97,1.08-10.05.81-3.09,2.5-5.95,4.25-8.77-1.82,9.36-.97,18.22,3.41,26.74.25-4.2,1.18-8.13,4.2-12.03-1.86,19.26,8.19,31.58,21.96,41.91v-.03Z"/>
    <path class="cls-2" d="M54.19,215.55c5.31-38.46,22.36-71.09,50.24-98.04,28.18-27.25,62.05-41.59,101.51-43.47-.84-3.33-1.54-6.45-2.47-9.5-.16-.51-1.33-1.07-1.99-1.03-5.94.37-11.92.49-17.78,1.4-36.38,5.68-67.1,22.4-92.77,48.52-13.5,13.74-24.4,29.41-32.7,46.83-5.78,12.12-10.38,24.63-12.32,37.99-.14.98-.24,2.18.2,2.98,2.6,4.8,5.37,9.52,8.1,14.31h-.02Z"/>
    <path class="cls-3" d="M372.34,215.12c2.53-4.22,5.38-8.92,8.16-13.65.28-.47.23-1.21.17-1.8-1.08-9.32-3.7-18.24-7.09-26.94-12.94-33.22-33.85-60.23-63.18-80.6-8.87-6.16-18.2-11.55-28.26-15.96-1.01,1.78-1.99,3.42-2.89,5.12-.89,1.68-1.68,3.4-2.42,4.92,53.81,27.32,85.87,70.24,95.52,128.92h0Z"/>
    <path class="cls-4" d="M140.8,108.32c1.3-.35,2.31-.53,3.26-.88,21.84-8.18,44.15-14.43,67.42-16.9,2.13-.23,4.19-1.04,6.28-1.59-17.33-6.14-65.12,6.12-76.97,19.37h.01Z"/>
    <path class="cls-5" d="M77.07,185.5c1.27.14,1.81-.26,2.27-1.48,5.99-15.94,14.19-30.71,23.8-44.72,1.04-1.51,1.13-2.64-.23-4.43-14.56,14.3-24.17,31.28-30.73,50.59,2.01,0,3.47-.12,4.89.03h0Z"/>
    <path class="cls-6" d="M323.49,135.16c-.64,1.24-1.06,2.06-1.51,2.93,10.68,14.62,19.24,30.43,25.43,47.5,2.21-.11,4.17-.21,6.47-.33-6.4-19.23-16.16-35.86-30.39-50.1h0Z"/>
  </g>
</svg>